<svg xmlns="http://www.w3.org/2000/svg" width="32" height="32" viewBox="0 0 32 32" fill="none">
  <defs>
    <linearGradient id="bg" x1="0" y1="0" x2="32" y2="32" gradientUnits="userSpaceOnUse">
      <stop stop-color="#aa3bff"/>
      <stop offset="0.55" stop-color="#d946ef"/>
      <stop offset="1" stop-color="#22d3ee"/>
    </linearGradient>
  </defs>
  <!-- app-gradient tile -->
  <rect width="32" height="32" rx="8" fill="url(#bg)"/>
  <!-- speech bubble that reads as a persona's face -->
  <path d="M6 9.5A3.5 3.5 0 0 1 9.5 6h13A3.5 3.5 0 0 1 26 9.5v8a3.5 3.5 0 0 1-3.5 3.5H13l-4.4 3.9A0.9 0.9 0 0 1 7 24.2V21H9.5A3.5 3.5 0 0 1 6 17.5v-8Z" fill="#fff"/>
  <!-- eyes -->
  <circle cx="13" cy="13" r="1.7" fill="#aa3bff"/>
  <circle cx="19" cy="13" r="1.7" fill="#aa3bff"/>
  <!-- friendly smile -->
  <path d="M12.4 16.4c1 1.4 2.2 2.1 3.6 2.1s2.6-.7 3.6-2.1" stroke="#d946ef" stroke-width="1.8" stroke-linecap="round" fill="none"/>
  <!-- AI sparkle -->
  <path d="M24 5.5c.3 1.7.8 2.2 2.5 2.5-1.7.3-2.2.8-2.5 2.5-.3-1.7-.8-2.2-2.5-2.5 1.7-.3 2.2-.8 2.5-2.5Z" fill="#fff"/>
</svg>
